<svg id="Layer_4" data-name="Layer 4" xmlns="http://www.w3.org/2000/svg" viewBox="0 0 512 512"><path d="M193,408.159a10.277,10.277,0,0,1,3.535-2.225,12.338,12.338,0,0,1,4.451-.786,11.3,11.3,0,0,1,8.424,3.492l3.578-3.492a13.739,13.739,0,0,0-5.259-3.71,18.5,18.5,0,0,0-7-1.265,18.256,18.256,0,0,0-6.59,1.156,15.888,15.888,0,0,0-5.259,3.274,14.647,14.647,0,0,0-3.47,5,16.784,16.784,0,0,0,0,12.569,14.789,14.789,0,0,0,3.448,5,15.668,15.668,0,0,0,5.215,3.273,18.059,18.059,0,0,0,6.569,1.157,21.446,21.446,0,0,0,6.393-.982,16.772,16.772,0,0,0,5.565-2.9V415.535h-5.369v9.49a10.649,10.649,0,0,1-1.9.875,13.5,13.5,0,0,1-4.386.72,12.134,12.134,0,0,1-4.452-.785,10.179,10.179,0,0,1-5.782-5.674,11.117,11.117,0,0,1-.808-4.276,11.25,11.25,0,0,1,.808-4.322A9.978,9.978,0,0,1,193,408.159Z"/><polygon points="225.733 400.609 220.061 400.609 220.061 431.159 241.707 431.159 241.707 426.358 225.733 426.358 225.733 400.609"/><path d="M255.673,400.609l-13.748,30.55h5.848l3.026-7.07h15.279l3.036,7.07h5.936l-13.791-30.55Zm-2.97,19.029,5.721-13.37,5.742,13.37Z"/><path d="M297.2,416.059a16.131,16.131,0,0,0-3.535-1.484q-1.942-.567-3.906-1.025t-3.557-.939a6.919,6.919,0,0,1-2.575-1.331,2.83,2.83,0,0,1-.982-2.248,3.434,3.434,0,0,1,.676-2.094,4.656,4.656,0,0,1,2.139-1.484,10.735,10.735,0,0,1,3.818-.567,16.072,16.072,0,0,1,4.191.589,16.827,16.827,0,0,1,4.233,1.811l1.789-4.408a15.8,15.8,0,0,0-4.714-2.008,21.765,21.765,0,0,0-5.455-.7,16.719,16.719,0,0,0-6.917,1.244,9.169,9.169,0,0,0-4.059,3.316,8.27,8.27,0,0,0-1.331,4.561,7.332,7.332,0,0,0,1,4.016,7.662,7.662,0,0,0,2.6,2.509,16.236,16.236,0,0,0,3.535,1.528q1.942.588,3.885,1.025t3.535.939a7.432,7.432,0,0,1,2.6,1.352,2.8,2.8,0,0,1,1,2.248,3.2,3.2,0,0,1-.7,2.029,4.631,4.631,0,0,1-2.182,1.418,11.89,11.89,0,0,1-3.884.525,16.461,16.461,0,0,1-5.543-.961,15.871,15.871,0,0,1-4.539-2.4l-1.964,4.409a14.947,14.947,0,0,0,5.194,2.64A22.773,22.773,0,0,0,288.4,431.6a16.861,16.861,0,0,0,6.939-1.244,9.166,9.166,0,0,0,4.081-3.317,8.2,8.2,0,0,0,1.331-4.516,7.36,7.36,0,0,0-.983-3.972A7.258,7.258,0,0,0,297.2,416.059Z"/><path d="M324.65,416.059a16.131,16.131,0,0,0-3.535-1.484q-1.942-.567-3.906-1.025t-3.557-.939a6.919,6.919,0,0,1-2.575-1.331,2.83,2.83,0,0,1-.982-2.248,3.434,3.434,0,0,1,.676-2.094,4.667,4.667,0,0,1,2.139-1.484,10.737,10.737,0,0,1,3.819-.567,16.071,16.071,0,0,1,4.19.589,16.827,16.827,0,0,1,4.233,1.811l1.789-4.408a15.8,15.8,0,0,0-4.713-2.008,21.779,21.779,0,0,0-5.456-.7,16.719,16.719,0,0,0-6.917,1.244,9.175,9.175,0,0,0-4.059,3.316,8.27,8.27,0,0,0-1.331,4.561,7.332,7.332,0,0,0,1,4.016,7.662,7.662,0,0,0,2.6,2.509,16.244,16.244,0,0,0,3.536,1.528q1.942.588,3.884,1.025t3.536.939a7.436,7.436,0,0,1,2.6,1.352,2.8,2.8,0,0,1,1,2.248,3.2,3.2,0,0,1-.7,2.029,4.626,4.626,0,0,1-2.182,1.418,11.89,11.89,0,0,1-3.884.525,16.461,16.461,0,0,1-5.543-.961,15.871,15.871,0,0,1-4.539-2.4l-1.963,4.409A14.933,14.933,0,0,0,309,430.57a22.777,22.777,0,0,0,6.852,1.026,16.861,16.861,0,0,0,6.939-1.244,9.166,9.166,0,0,0,4.081-3.317,8.2,8.2,0,0,0,1.331-4.516,7.369,7.369,0,0,0-.982-3.972A7.269,7.269,0,0,0,324.65,416.059Z"/><path d="M347.816,126.937C323.239,110.888,290.632,102.05,256,102.05s-67.239,8.838-91.816,24.887c-24.692,16.123-38.432,37.636-38.808,60.669,0,.06-.018.117-.018.177v21.454c0,23.4,13.788,45.288,38.826,61.638,24.576,16.049,57.184,24.887,91.816,24.887s67.24-8.838,91.816-24.887c25.038-16.35,38.826-38.239,38.826-61.638v-22.89a3.523,3.523,0,0,0-.084-.746C385.44,163.326,371.79,142.591,347.816,126.937ZM256,109.05c68.176,0,123.642,35.675,123.642,79.524S324.176,268.1,256,268.1s-123.642-35.675-123.642-79.526S187.824,109.05,256,109.05Zm0,179.712c-63.44,0-115.864-30.892-122.843-70.515,6.519,11.92,17.008,22.812,31.027,31.966C188.76,266.261,221.368,275.1,256,275.1s67.24-8.839,91.816-24.887c14.019-9.154,24.508-20.046,31.027-31.966C371.864,257.87,319.44,288.762,256,288.762Z"/><path d="M224.6,205.883a3.5,3.5,0,0,0,4.755,1.376l56.661-31.238a3.5,3.5,0,1,0-3.379-6.13L225.98,201.128A3.5,3.5,0,0,0,224.6,205.883Z"/><path d="M256.976,211.977a3.5,3.5,0,0,0,4.754,1.376l35.343-19.485a3.5,3.5,0,0,0-3.379-6.131l-35.342,19.485A3.5,3.5,0,0,0,256.976,211.977Z"/><path d="M216.619,189.848a3.489,3.489,0,0,0,1.687-.436l35.342-19.484a3.5,3.5,0,0,0-3.378-6.131l-35.343,19.484a3.5,3.5,0,0,0,1.692,6.567Z"/></svg>