<svg id="Layer_4" data-name="Layer 4" xmlns="http://www.w3.org/2000/svg" viewBox="0 0 512 512"><polygon points="115.377 408.57 122.933 431.159 128.956 431.159 139.081 400.609 133.669 400.609 125.845 423.97 118.132 400.609 112.895 400.609 105.002 423.849 97.402 400.609 91.51 400.609 101.635 431.159 107.702 431.159 115.377 408.57"/><path d="M152.174,400.609l-13.747,30.55h5.848l3.025-7.07h15.28l3.036,7.07h5.936l-13.791-30.55Zm-2.969,19.029,5.721-13.37,5.742,13.37Z"/><polygon points="185.779 431.159 185.779 405.41 195.905 405.41 195.905 400.609 169.981 400.609 169.981 405.41 180.106 405.41 180.106 431.159 185.779 431.159"/><polygon points="222.483 405.366 222.483 400.609 200.182 400.609 200.182 431.159 223.094 431.159 223.094 426.402 205.855 426.402 205.855 417.979 220.606 417.979 220.606 413.31 205.855 413.31 205.855 405.366 222.483 405.366"/><path d="M253.426,417.259A10.384,10.384,0,0,0,255,411.477a10.5,10.5,0,0,0-1.571-5.8,10.1,10.1,0,0,0-4.473-3.753,16.844,16.844,0,0,0-6.961-1.31h-12.57v30.55H235.1v-8.9h6.9c.408,0,.79-.029,1.181-.049l6.238,8.952h6.11L248.5,421.137c.149-.059.311-.1.456-.168A10.013,10.013,0,0,0,253.426,417.259Zm-6.045-10.278a5.5,5.5,0,0,1,1.9,4.5,5.583,5.583,0,0,1-1.9,4.5,8.53,8.53,0,0,1-5.652,1.614H235.1V405.41h6.633A8.7,8.7,0,0,1,247.381,406.981Z"/><path d="M280.855,401.919a16.841,16.841,0,0,0-6.961-1.31H261.325v30.55H267v-8.815h6.9a16.841,16.841,0,0,0,6.961-1.31,10.086,10.086,0,0,0,4.473-3.753,11.509,11.509,0,0,0,0-11.609A10.086,10.086,0,0,0,280.855,401.919Zm-1.571,14.031a8.611,8.611,0,0,1-5.652,1.593H267V405.41h6.634a8.7,8.7,0,0,1,5.652,1.571,6.247,6.247,0,0,1,0,8.969Z"/><path d="M316.577,417.259a10.384,10.384,0,0,0,1.571-5.782,10.5,10.5,0,0,0-1.571-5.8,10.1,10.1,0,0,0-4.473-3.753,16.844,16.844,0,0,0-6.961-1.31h-12.57v30.55h5.674v-8.9h6.9c.408,0,.79-.029,1.18-.049l6.239,8.952h6.11l-7.024-10.022c.149-.059.311-.1.456-.168A10.013,10.013,0,0,0,316.577,417.259Zm-6.045-10.278a5.5,5.5,0,0,1,1.9,4.5,5.583,5.583,0,0,1-1.9,4.5,8.53,8.53,0,0,1-5.652,1.614h-6.633V405.41h6.633A8.7,8.7,0,0,1,310.532,406.981Z"/><path d="M345.315,401.352a18.823,18.823,0,0,0-13.114,0,15.912,15.912,0,0,0-5.237,3.294,14.844,14.844,0,0,0-3.448,4.975,16.661,16.661,0,0,0,0,12.526,14.814,14.814,0,0,0,3.448,4.975,15.917,15.917,0,0,0,5.237,3.3,17.941,17.941,0,0,0,6.59,1.178,17.649,17.649,0,0,0,6.524-1.178,16.2,16.2,0,0,0,5.216-3.273,14.569,14.569,0,0,0,3.448-4.976,16.717,16.717,0,0,0,0-12.548,14.858,14.858,0,0,0-3.448-4.975A15.984,15.984,0,0,0,345.315,401.352Zm3.361,18.832a10.579,10.579,0,0,1-2.248,3.4,9.846,9.846,0,0,1-3.4,2.248,12.044,12.044,0,0,1-8.554,0,9.846,9.846,0,0,1-3.4-2.248,10.52,10.52,0,0,1-2.248-3.426,11.793,11.793,0,0,1,0-8.575,10.4,10.4,0,0,1,2.27-3.4,10.115,10.115,0,0,1,3.4-2.248,11.236,11.236,0,0,1,4.255-.786,11.406,11.406,0,0,1,4.277.786,9.846,9.846,0,0,1,3.4,2.248,10.584,10.584,0,0,1,2.248,3.4,11.854,11.854,0,0,1,0,8.6Z"/><path d="M360.263,409.621a16.661,16.661,0,0,0,0,12.526,14.814,14.814,0,0,0,3.448,4.975,15.917,15.917,0,0,0,5.237,3.3,17.945,17.945,0,0,0,6.59,1.178,17.646,17.646,0,0,0,6.524-1.178,16.2,16.2,0,0,0,5.216-3.273,14.569,14.569,0,0,0,3.448-4.976,16.717,16.717,0,0,0,0-12.548,14.858,14.858,0,0,0-3.448-4.975,15.984,15.984,0,0,0-5.216-3.294,18.823,18.823,0,0,0-13.114,0,15.912,15.912,0,0,0-5.237,3.294A14.844,14.844,0,0,0,360.263,409.621Zm5.3,1.965a10.419,10.419,0,0,1,2.27-3.4,10.125,10.125,0,0,1,3.4-2.248,11.236,11.236,0,0,1,4.255-.786,11.406,11.406,0,0,1,4.277.786,9.837,9.837,0,0,1,3.4,2.248,10.584,10.584,0,0,1,2.248,3.4,11.854,11.854,0,0,1,0,8.6,10.579,10.579,0,0,1-2.248,3.4,9.837,9.837,0,0,1-3.4,2.248,12.044,12.044,0,0,1-8.554,0,9.846,9.846,0,0,1-3.4-2.248,10.536,10.536,0,0,1-2.248-3.426,11.793,11.793,0,0,1,0-8.575Z"/><polygon points="397.971 431.159 403.644 431.159 403.644 419.463 418.396 419.463 418.396 414.662 403.644 414.662 403.644 405.366 420.272 405.366 420.272 400.609 397.971 400.609 397.971 431.159"/><path d="M254.417,326.94a3.5,3.5,0,0,0,3.166,0c36.7-18.62,61.8-37.674,79.014-59.965,19.974-25.871,29.683-56.858,29.683-94.732V106.685a3.5,3.5,0,0,0-2.35-3.306L257.15,66.231a3.514,3.514,0,0,0-2.3,0L148.07,103.379a3.5,3.5,0,0,0-2.35,3.306v65.558c0,37.874,9.709,68.861,29.683,94.732C192.613,289.266,217.72,308.32,254.417,326.94ZM152.72,109.173,256,73.243l103.28,35.93v63.07c0,67.168-29.954,110.049-103.28,147.647-73.326-37.6-103.28-80.479-103.28-147.647Z"/><path d="M256,263.082a57.425,57.425,0,0,0,57.36-57.36c0-30.751-52.54-88.585-54.777-91.032a3.5,3.5,0,0,0-5.166,0c-2.237,2.447-54.777,60.281-54.777,91.032A57.425,57.425,0,0,0,256,263.082Zm0-140.767c10.627,12.1,50.36,58.985,50.36,83.407a50.36,50.36,0,0,1-100.72,0C205.64,181.3,245.373,134.417,256,122.315Z"/><path d="M256,239.5a3.5,3.5,0,0,0,0-7,26.8,26.8,0,0,1-26.772-26.773,3.5,3.5,0,0,0-7,0A33.811,33.811,0,0,0,256,239.5Z"/></svg>