<svg id="Layer_4" data-name="Layer 4" xmlns="http://www.w3.org/2000/svg" viewBox="0 0 512 512"><path d="M133.6,429.239a14.356,14.356,0,0,0,5.849-5.346,16.4,16.4,0,0,0,0-16.039,14.411,14.411,0,0,0-5.849-5.325,18.928,18.928,0,0,0-8.729-1.92H111.521v30.55h13.354A18.9,18.9,0,0,0,133.6,429.239Zm-16.41-2.881V405.41h7.42a12.721,12.721,0,0,1,5.957,1.309,9.5,9.5,0,0,1,3.885,3.644,11.735,11.735,0,0,1,0,11.02,9.457,9.457,0,0,1-3.885,3.666,12.721,12.721,0,0,1-5.957,1.309Z"/><rect x="147.57" y="400.609" width="5.673" height="30.55"/><polygon points="190.208 400.609 178.284 420.853 166.161 400.609 161.491 400.609 161.491 431.159 166.903 431.159 166.903 411.182 176.941 427.668 179.472 427.668 189.513 410.919 189.554 431.159 194.922 431.159 194.878 400.609 190.208 400.609"/><polygon points="225.472 405.366 225.472 400.609 203.17 400.609 203.17 431.159 226.083 431.159 226.083 426.402 208.843 426.402 208.843 417.979 223.595 417.979 223.595 413.309 208.843 413.309 208.843 405.366 225.472 405.366"/><polygon points="254.887 431.159 259.557 431.159 259.557 400.609 253.927 400.609 253.927 421.293 237.081 400.609 232.411 400.609 232.411 431.159 238.041 431.159 238.041 410.476 254.887 431.159"/><path d="M281.116,426.358a11.9,11.9,0,0,1-3.884.524,16.46,16.46,0,0,1-5.543-.96,15.871,15.871,0,0,1-4.539-2.4l-1.964,4.409a14.955,14.955,0,0,0,5.194,2.64,22.8,22.8,0,0,0,6.852,1.026,16.877,16.877,0,0,0,6.939-1.244,9.157,9.157,0,0,0,4.08-3.317,8.194,8.194,0,0,0,1.332-4.517,7.382,7.382,0,0,0-.982-3.972,7.275,7.275,0,0,0-2.575-2.487,16.151,16.151,0,0,0-3.535-1.484q-1.942-.567-3.907-1.026t-3.556-.938a6.926,6.926,0,0,1-2.575-1.331,2.828,2.828,0,0,1-.982-2.248,3.432,3.432,0,0,1,.676-2.094,4.661,4.661,0,0,1,2.139-1.484,10.729,10.729,0,0,1,3.818-.568,16.1,16.1,0,0,1,4.19.589,16.822,16.822,0,0,1,4.234,1.812l1.789-4.409a15.768,15.768,0,0,0-4.713-2.007,21.786,21.786,0,0,0-5.456-.7,16.7,16.7,0,0,0-6.917,1.245,9.169,9.169,0,0,0-4.059,3.316,8.27,8.27,0,0,0-1.331,4.561,7.326,7.326,0,0,0,1,4.015,7.656,7.656,0,0,0,2.6,2.51,16.194,16.194,0,0,0,3.536,1.527q1.941.589,3.884,1.026t3.535.938a7.433,7.433,0,0,1,2.6,1.353,2.8,2.8,0,0,1,1,2.248,3.214,3.214,0,0,1-.7,2.029A4.638,4.638,0,0,1,281.116,426.358Z"/><rect x="295.213" y="400.609" width="5.673" height="30.55"/><path d="M316.859,430.417a17.925,17.925,0,0,0,6.59,1.179,17.635,17.635,0,0,0,6.525-1.179,16.173,16.173,0,0,0,5.215-3.273,14.555,14.555,0,0,0,3.448-4.975,16.717,16.717,0,0,0,0-12.548,14.858,14.858,0,0,0-3.448-4.975,16.009,16.009,0,0,0-5.215-3.3,18.826,18.826,0,0,0-13.115,0,15.941,15.941,0,0,0-5.237,3.3,14.844,14.844,0,0,0-3.448,4.975,16.661,16.661,0,0,0,0,12.526,14.824,14.824,0,0,0,3.448,4.975A15.908,15.908,0,0,0,316.859,430.417Zm-3.382-18.832a10.421,10.421,0,0,1,2.269-3.4,10.137,10.137,0,0,1,3.4-2.247,11.236,11.236,0,0,1,4.255-.786,11.415,11.415,0,0,1,4.278.786,9.854,9.854,0,0,1,3.4,2.247,10.605,10.605,0,0,1,2.248,3.4,11.841,11.841,0,0,1,0,8.6,10.584,10.584,0,0,1-2.248,3.4,9.856,9.856,0,0,1-3.4,2.248,12.047,12.047,0,0,1-8.555,0,9.87,9.87,0,0,1-3.4-2.248,10.528,10.528,0,0,1-2.247-3.426,11.782,11.782,0,0,1,0-8.576Z"/><polygon points="351.511 410.476 368.357 431.159 373.027 431.159 373.027 400.609 367.397 400.609 367.397 421.293 350.551 400.609 345.881 400.609 345.881 431.159 351.511 431.159 351.511 410.476"/><path d="M380.643,404.733a8.27,8.27,0,0,0-1.331,4.561,7.326,7.326,0,0,0,1,4.015,7.65,7.65,0,0,0,2.6,2.51,16.165,16.165,0,0,0,3.535,1.527q1.941.589,3.884,1.026t3.535.938a7.433,7.433,0,0,1,2.6,1.353,2.8,2.8,0,0,1,1,2.248,3.214,3.214,0,0,1-.7,2.029,4.633,4.633,0,0,1-2.182,1.418,11.893,11.893,0,0,1-3.884.524,16.46,16.46,0,0,1-5.543-.96,15.871,15.871,0,0,1-4.539-2.4l-1.964,4.409a14.964,14.964,0,0,0,5.194,2.64A22.8,22.8,0,0,0,390.7,431.6a16.877,16.877,0,0,0,6.939-1.244,9.166,9.166,0,0,0,4.081-3.317,8.2,8.2,0,0,0,1.331-4.517,7.373,7.373,0,0,0-.982-3.972,7.267,7.267,0,0,0-2.575-2.487,16.131,16.131,0,0,0-3.535-1.484q-1.942-.567-3.906-1.026t-3.557-.938a6.942,6.942,0,0,1-2.575-1.331,2.831,2.831,0,0,1-.982-2.248,3.427,3.427,0,0,1,.677-2.094,4.652,4.652,0,0,1,2.138-1.484,10.731,10.731,0,0,1,3.819-.568,16.108,16.108,0,0,1,4.19.589A16.831,16.831,0,0,1,400,407.287l1.789-4.409a15.768,15.768,0,0,0-4.713-2.007,21.772,21.772,0,0,0-5.455-.7,16.7,16.7,0,0,0-6.918,1.245A9.169,9.169,0,0,0,380.643,404.733Z"/><path d="M169.279,326.294a3.5,3.5,0,0,0,4.95,0l21.516-21.516,0,0,0,0,82.9-82.9h0l0,0,55.266-55.266h0l51.7-51.7a3.5,3.5,0,0,0,0-4.95l-42.9-42.9a3.5,3.5,0,0,0-4.95,0L126.383,278.449a3.5,3.5,0,0,0,0,4.95ZM340.245,74.487l37.946,37.946-19.115,19.115-14.9-14.9a3.5,3.5,0,0,0-4.949,4.95l14.9,14.9-22.684,22.684-14.9-14.9a3.5,3.5,0,0,0-4.95,4.95l14.9,14.9-22.683,22.683-14.9-14.9a3.5,3.5,0,1,0-4.95,4.95l14.9,14.9-22.684,22.683-14.9-14.9a3.5,3.5,0,1,0-4.95,4.95l14.9,14.9L248.54,242.084l-14.9-14.9a3.5,3.5,0,0,0-4.95,4.949l14.9,14.9-22.684,22.684-14.9-14.9a3.5,3.5,0,0,0-4.949,4.95l14.9,14.9-22.685,22.684-14.9-14.9a3.5,3.5,0,0,0-4.95,4.95l14.9,14.9L171.754,318.87l-37.946-37.946Z"/></svg>