<svg id="Layer_4" data-name="Layer 4" xmlns="http://www.w3.org/2000/svg" viewBox="0 0 512 512"><path d="M121.734,408.159a10.181,10.181,0,0,1,3.448-2.225,11.82,11.82,0,0,1,4.386-.786,10.734,10.734,0,0,1,8.161,3.579l3.667-3.448a13.576,13.576,0,0,0-5.238-3.819,18.874,18.874,0,0,0-13.354-.131,15.742,15.742,0,0,0-5.194,3.274,14.8,14.8,0,0,0-3.448,5,16.771,16.771,0,0,0,0,12.569,14.931,14.931,0,0,0,3.426,5,15.422,15.422,0,0,0,5.193,3.273,17.815,17.815,0,0,0,6.482,1.157,17.545,17.545,0,0,0,6.895-1.31,13.964,13.964,0,0,0,5.238-3.8L137.729,423a10.84,10.84,0,0,1-3.709,2.728,11.028,11.028,0,0,1-4.452.894,11.84,11.84,0,0,1-4.386-.785,10.074,10.074,0,0,1-5.717-5.63,11.958,11.958,0,0,1,0-8.642A10.125,10.125,0,0,1,121.734,408.159Z"/><path d="M172.25,404.646a15.979,15.979,0,0,0-5.215-3.294,18.826,18.826,0,0,0-13.115,0,15.918,15.918,0,0,0-5.236,3.294,14.847,14.847,0,0,0-3.449,4.975,16.673,16.673,0,0,0,0,12.526,14.817,14.817,0,0,0,3.449,4.975,15.923,15.923,0,0,0,5.236,3.3,17.947,17.947,0,0,0,6.591,1.178,17.649,17.649,0,0,0,6.524-1.178,16.2,16.2,0,0,0,5.215-3.273,14.569,14.569,0,0,0,3.448-4.976,16.717,16.717,0,0,0,0-12.548A14.858,14.858,0,0,0,172.25,404.646ZM170.4,420.184a10.6,10.6,0,0,1-2.249,3.4,9.833,9.833,0,0,1-3.4,2.248,12.047,12.047,0,0,1-8.555,0,9.865,9.865,0,0,1-3.4-2.248,10.517,10.517,0,0,1-2.247-3.426,11.779,11.779,0,0,1,0-8.575,10.387,10.387,0,0,1,2.27-3.4,10.115,10.115,0,0,1,3.4-2.248,11.232,11.232,0,0,1,4.255-.786,11.406,11.406,0,0,1,4.277.786,9.833,9.833,0,0,1,3.4,2.248,10.6,10.6,0,0,1,2.249,3.4,11.854,11.854,0,0,1,0,8.6Z"/><polygon points="211.66 400.609 199.736 420.853 187.613 400.609 182.943 400.609 182.943 431.159 188.354 431.159 188.354 411.181 198.393 427.668 200.924 427.668 210.966 410.919 211.006 431.159 216.374 431.159 216.33 400.609 211.66 400.609"/><polygon points="253.339 400.609 241.414 420.853 229.292 400.609 224.622 400.609 224.622 431.159 230.033 431.159 230.033 411.181 240.071 427.668 242.603 427.668 252.644 410.919 252.685 431.159 258.053 431.159 258.009 400.609 253.339 400.609"/><path d="M287.205,417.63q0,4.713-2.008,6.852a8.742,8.742,0,0,1-11.456,0q-2.029-2.137-2.029-6.852V400.609h-5.674v17.24q0,6.677,3.557,10.212t9.842,3.535q6.24,0,9.8-3.535t3.557-10.212v-17.24h-5.586Z"/><polygon points="322.25 421.292 305.404 400.609 300.734 400.609 300.734 431.159 306.364 431.159 306.364 410.476 323.21 431.159 327.88 431.159 327.88 400.609 322.25 400.609 322.25 421.292"/><rect x="336.085" y="400.609" width="5.673" height="30.55"/><polygon points="395.395 400.609 386.367 415.471 377.414 400.609 372.002 400.609 371.348 400.609 346.078 400.609 346.078 405.41 356.203 405.41 356.203 431.159 361.877 431.159 361.877 405.41 372.002 405.41 372.002 401.692 383.349 420.467 383.349 431.159 389.022 431.159 389.022 420.395 400.98 400.609 395.395 400.609"/><path d="M348.625,249.649a44.406,44.406,0,1,0-38.94-79.821A75.887,75.887,0,0,0,275.5,150.347a44.416,44.416,0,1,0-39,0,75.887,75.887,0,0,0-34.183,19.481,44.406,44.406,0,1,0-38.94,79.821,76.809,76.809,0,0,0-57.228,74.17,3.5,3.5,0,0,0,3.5,3.5H402.353a3.5,3.5,0,0,0,3.5-3.5A76.809,76.809,0,0,0,348.625,249.649Zm17.967-39.921a37.416,37.416,0,1,1-37.416-37.416A37.458,37.458,0,0,1,366.592,209.728ZM218.584,110.453A37.416,37.416,0,1,1,256,147.868,37.459,37.459,0,0,1,218.584,110.453ZM256,154.868a68.976,68.976,0,0,1,47.462,18.679,44.377,44.377,0,0,0,6.266,76.1A76.984,76.984,0,0,0,256,300.9a76.984,76.984,0,0,0-53.728-51.256,44.377,44.377,0,0,0,6.266-76.1A68.976,68.976,0,0,1,256,154.868Zm-110.592,54.86a37.416,37.416,0,1,1,37.416,37.415A37.458,37.458,0,0,1,145.408,209.728ZM113.234,320.319a69.678,69.678,0,0,1,139.179,0Zm146.353,0a69.678,69.678,0,0,1,139.179,0Z"/></svg>