<svg id="Layer_4" data-name="Layer 4" xmlns="http://www.w3.org/2000/svg" viewBox="0 0 512 512"><polygon points="83.896 431.159 89.569 431.159 89.569 419.463 104.32 419.463 104.32 414.662 89.569 414.662 89.569 405.366 106.197 405.366 106.197 400.609 83.896 400.609 83.896 431.159"/><path d="M131.226,420.969a10,10,0,0,0,4.473-3.71,10.384,10.384,0,0,0,1.572-5.782,10.5,10.5,0,0,0-1.572-5.8,10.086,10.086,0,0,0-4.473-3.753,16.837,16.837,0,0,0-6.961-1.31H111.7v30.55h5.673v-8.9h6.9c.408,0,.79-.029,1.181-.049l6.238,8.952h6.11l-7.023-10.022C130.92,421.078,131.081,421.033,131.226,420.969Zm-1.571-13.988a5.506,5.506,0,0,1,1.9,4.5,5.585,5.585,0,0,1-1.9,4.5A8.532,8.532,0,0,1,124,417.586h-6.634V405.41H124A8.7,8.7,0,0,1,129.655,406.981Z"/><polygon points="149.272 417.979 164.023 417.979 164.023 413.31 149.272 413.31 149.272 405.366 165.9 405.366 165.9 400.609 143.599 400.609 143.599 431.159 166.511 431.159 166.511 426.402 149.272 426.402 149.272 417.979"/><polygon points="178.513 417.979 193.264 417.979 193.264 413.31 178.513 413.31 178.513 405.366 195.141 405.366 195.141 400.609 172.839 400.609 172.839 431.159 195.752 431.159 195.752 426.402 178.513 426.402 178.513 417.979"/><path d="M232.39,416.059a16.139,16.139,0,0,0-3.536-1.484q-1.941-.567-3.906-1.025t-3.556-.939a6.924,6.924,0,0,1-2.576-1.331,2.83,2.83,0,0,1-.982-2.248,3.435,3.435,0,0,1,.677-2.094,4.658,4.658,0,0,1,2.138-1.484,10.741,10.741,0,0,1,3.819-.567,16.059,16.059,0,0,1,4.19.589,16.834,16.834,0,0,1,4.234,1.811l1.789-4.408a15.8,15.8,0,0,0-4.714-2.008,21.771,21.771,0,0,0-5.455-.7,16.719,16.719,0,0,0-6.917,1.244,9.169,9.169,0,0,0-4.059,3.316,8.27,8.27,0,0,0-1.331,4.561,7.34,7.34,0,0,0,1,4.016,7.665,7.665,0,0,0,2.6,2.509,16.236,16.236,0,0,0,3.535,1.528q1.942.588,3.885,1.025t3.535.939a7.427,7.427,0,0,1,2.6,1.352,2.8,2.8,0,0,1,1,2.248,3.209,3.209,0,0,1-.7,2.029,4.634,4.634,0,0,1-2.183,1.418,11.888,11.888,0,0,1-3.883.525,16.457,16.457,0,0,1-5.543-.961,15.871,15.871,0,0,1-4.539-2.4l-1.964,4.409a14.938,14.938,0,0,0,5.194,2.64A22.768,22.768,0,0,0,223.6,431.6a16.861,16.861,0,0,0,6.939-1.244,9.157,9.157,0,0,0,4.08-3.317,8.2,8.2,0,0,0,1.331-4.516,7.369,7.369,0,0,0-.982-3.972A7.267,7.267,0,0,0,232.39,416.059Z"/><polygon points="263.048 413.222 247.25 413.222 247.25 400.609 241.576 400.609 241.576 431.159 247.25 431.159 247.25 418.066 263.048 418.066 263.048 431.159 268.722 431.159 268.722 400.609 263.048 400.609 263.048 413.222"/><rect x="276.927" y="400.609" width="5.673" height="30.55"/><path d="M310.379,401.919a16.841,16.841,0,0,0-6.961-1.31H290.849v30.55h5.673v-8.815h6.9a16.841,16.841,0,0,0,6.961-1.31,10.091,10.091,0,0,0,4.473-3.753,11.509,11.509,0,0,0,0-11.609A10.091,10.091,0,0,0,310.379,401.919Zm-1.571,14.031a8.611,8.611,0,0,1-5.652,1.593h-6.634V405.41h6.634a8.7,8.7,0,0,1,5.652,1.571,6.247,6.247,0,0,1,0,8.969Z"/><path d="M341.627,401.919a16.836,16.836,0,0,0-6.96-1.31H322.1v30.55h5.674v-8.815h6.9a16.836,16.836,0,0,0,6.96-1.31,10.094,10.094,0,0,0,4.474-3.753,11.509,11.509,0,0,0,0-11.609A10.094,10.094,0,0,0,341.627,401.919Zm-1.571,14.031a8.609,8.609,0,0,1-5.652,1.593h-6.633V405.41H334.4a8.7,8.7,0,0,1,5.652,1.571,6.245,6.245,0,0,1,0,8.969Z"/><rect x="353.346" y="400.609" width="5.673" height="30.55"/><polygon points="388.783 421.293 371.937 400.609 367.267 400.609 367.267 431.159 372.897 431.159 372.897 410.476 389.743 431.159 394.413 431.159 394.413 400.609 388.783 400.609 388.783 421.293"/><path d="M409.252,408.159a10.277,10.277,0,0,1,3.535-2.225,12.334,12.334,0,0,1,4.451-.786,11.3,11.3,0,0,1,8.424,3.492l3.578-3.492a13.747,13.747,0,0,0-5.259-3.71,18.5,18.5,0,0,0-7-1.265,18.252,18.252,0,0,0-6.59,1.156,15.9,15.9,0,0,0-5.26,3.274,14.644,14.644,0,0,0-3.469,5,16.771,16.771,0,0,0,0,12.569,14.774,14.774,0,0,0,3.448,5,15.658,15.658,0,0,0,5.215,3.273,18.054,18.054,0,0,0,6.568,1.157,21.453,21.453,0,0,0,6.394-.982,16.782,16.782,0,0,0,5.565-2.9V415.535h-5.369v9.49a10.649,10.649,0,0,1-1.9.875,13.5,13.5,0,0,1-4.386.72,12.134,12.134,0,0,1-4.452-.785,10.184,10.184,0,0,1-5.783-5.674,11.135,11.135,0,0,1-.807-4.276,11.269,11.269,0,0,1,.807-4.322A9.981,9.981,0,0,1,409.252,408.159Z"/><path d="M400.771,208.14a3.5,3.5,0,0,0-.506-1.814l-44.46-73.373a3.5,3.5,0,0,0-2.993-1.686H288.4V100.958a3.5,3.5,0,0,0-3.5-3.5H114.729a3.5,3.5,0,0,0-3.5,3.5v164.01a3.5,3.5,0,0,0,3.5,3.5h20.232a30.927,30.927,0,0,0,61.458,0H284.9l.019,0h11.688a30.928,30.928,0,0,0,61.459,0h39.205a3.5,3.5,0,0,0,3.5-3.5ZM165.69,288.9a23.959,23.959,0,0,1-23.932-23.923v-.015a23.932,23.932,0,0,1,47.864-.027c0,.012,0,.023,0,.035s0,.022,0,.034A23.959,23.959,0,0,1,165.69,288.9Zm115.71-27.43H196.42a30.927,30.927,0,0,0-61.459,0H118.229V104.458H281.4Zm45.936,27.43a23.933,23.933,0,1,1,23.934-23.932A23.959,23.959,0,0,1,327.336,288.9Zm66.435-27.432H358.066a30.927,30.927,0,0,0-61.459,0H288.4v-123.2H350.84l42.931,70.85Z"/><path d="M341.086,153.477H307.132a3.5,3.5,0,0,0-3.5,3.5v45.1a3.5,3.5,0,0,0,3.5,3.5H367.75a3.5,3.5,0,0,0,3.013-5.281L344.1,155.2A3.5,3.5,0,0,0,341.086,153.477Zm-30.454,45.1v-38.1H339.09l22.525,38.1Z"/><path d="M316.764,211.7h-9.632a3.5,3.5,0,0,0,0,7h9.632a3.5,3.5,0,0,0,0-7Z"/></svg>