<svg id="Layer_4" data-name="Layer 4" xmlns="http://www.w3.org/2000/svg" viewBox="0 0 512 512"><polygon points="141.634 431.159 147.308 431.159 147.308 419.463 162.059 419.463 162.059 414.662 147.308 414.662 147.308 405.366 163.936 405.366 163.936 400.609 141.634 400.609 141.634 431.159"/><polygon points="175.107 417.979 189.859 417.979 189.859 413.31 175.107 413.31 175.107 405.366 191.736 405.366 191.736 400.609 169.435 400.609 169.435 431.159 192.347 431.159 192.347 426.402 175.107 426.402 175.107 417.979"/><path d="M208.1,400.609l-13.748,30.55H200.2l3.026-7.07h15.279l3.037,7.07h5.935l-13.791-30.55Zm-2.97,19.029,5.722-13.37,5.742,13.37Z"/><polygon points="225.909 405.41 236.034 405.41 236.034 431.159 241.707 431.159 241.707 405.41 251.833 405.41 251.833 400.609 225.909 400.609 225.909 405.41"/><path d="M276.447,417.63q0,4.713-2.007,6.852a7.46,7.46,0,0,1-5.717,2.138,7.536,7.536,0,0,1-5.74-2.138q-2.028-2.137-2.029-6.852V400.609h-5.673v17.24q0,6.677,3.557,10.212t9.842,3.535q6.24,0,9.8-3.535t3.556-10.212v-17.24h-5.587Z"/><path d="M309.507,420.969a10,10,0,0,0,4.472-3.71,10.384,10.384,0,0,0,1.572-5.782,10.5,10.5,0,0,0-1.572-5.8,10.083,10.083,0,0,0-4.472-3.753,16.844,16.844,0,0,0-6.961-1.31H289.977v30.55h5.672v-8.9h6.9c.408,0,.79-.029,1.181-.049l6.238,8.952h6.11l-7.023-10.022C309.2,421.078,309.362,421.033,309.507,420.969Zm-1.571-13.988a5.506,5.506,0,0,1,1.9,4.5,5.585,5.585,0,0,1-1.9,4.5,8.534,8.534,0,0,1-5.653,1.614h-6.634V405.41h6.634A8.707,8.707,0,0,1,307.936,406.981Z"/><polygon points="327.552 417.979 342.304 417.979 342.304 413.31 327.552 413.31 327.552 405.366 344.181 405.366 344.181 400.609 321.879 400.609 321.879 431.159 344.791 431.159 344.791 426.402 327.552 426.402 327.552 417.979"/><path d="M369.385,416.059a16.151,16.151,0,0,0-3.535-1.484q-1.942-.567-3.907-1.025t-3.556-.939a6.911,6.911,0,0,1-2.575-1.331,2.827,2.827,0,0,1-.983-2.248,3.435,3.435,0,0,1,.677-2.094,4.656,4.656,0,0,1,2.139-1.484,10.731,10.731,0,0,1,3.818-.567,16.065,16.065,0,0,1,4.19.589,16.834,16.834,0,0,1,4.234,1.811l1.789-4.408a15.8,15.8,0,0,0-4.714-2.008,21.771,21.771,0,0,0-5.455-.7,16.715,16.715,0,0,0-6.917,1.244,9.178,9.178,0,0,0-4.06,3.316,8.278,8.278,0,0,0-1.331,4.561,7.332,7.332,0,0,0,1,4.016,7.656,7.656,0,0,0,2.6,2.509,16.214,16.214,0,0,0,3.535,1.528q1.943.588,3.885,1.025t3.535.939a7.441,7.441,0,0,1,2.6,1.352,2.8,2.8,0,0,1,1,2.248,3.2,3.2,0,0,1-.7,2.029,4.627,4.627,0,0,1-2.181,1.418,11.9,11.9,0,0,1-3.884.525,16.457,16.457,0,0,1-5.543-.961,15.844,15.844,0,0,1-4.539-2.4l-1.964,4.409a14.942,14.942,0,0,0,5.193,2.64,22.779,22.779,0,0,0,6.853,1.026,16.856,16.856,0,0,0,6.938-1.244,9.16,9.16,0,0,0,4.081-3.317,8.2,8.2,0,0,0,1.331-4.516,7.369,7.369,0,0,0-.982-3.972A7.267,7.267,0,0,0,369.385,416.059Z"/><path d="M256,66.037c-72.036,0-130.642,58.606-130.642,130.641S183.964,327.319,256,327.319s130.642-58.605,130.642-130.641S328.036,66.037,256,66.037Zm0,254.282A123.641,123.641,0,1,1,379.642,196.678,123.782,123.782,0,0,1,256,320.319Z"/><path d="M337.491,164.784l-54.14-7.867-24.212-49.059a3.5,3.5,0,0,0-6.278,0l-24.212,49.059-54.14,7.867a3.5,3.5,0,0,0-1.941,5.97l39.177,38.188L202.5,262.864a3.5,3.5,0,0,0,5.078,3.69L256,241.1l48.425,25.458a3.5,3.5,0,0,0,5.078-3.69l-9.248-53.922,39.177-38.188a3.5,3.5,0,0,0-1.941-5.97Zm-43.44,40.431a3.5,3.5,0,0,0-1.006,3.1l8.36,48.746-43.776-23.014a3.5,3.5,0,0,0-3.258,0L210.6,257.058l8.36-48.746a3.5,3.5,0,0,0-1.006-3.1l-35.416-34.524,48.944-7.111a3.5,3.5,0,0,0,2.635-1.915L256,117.315l21.888,44.35a3.5,3.5,0,0,0,2.635,1.915l48.944,7.111Z"/></svg>