<svg id="Layer_4" data-name="Layer 4" xmlns="http://www.w3.org/2000/svg" viewBox="0 0 512 512"><path d="M29.779,400.609l-13.748,30.55H21.88l3.025-7.07H40.184l3.037,7.07h5.935l-13.791-30.55ZM26.81,419.638l5.72-13.37,5.742,13.37Z"/><polygon points="53.041 431.159 58.714 431.159 58.714 419.463 73.466 419.463 73.466 414.662 58.714 414.662 58.714 405.366 75.343 405.366 75.343 400.609 53.041 400.609 53.041 431.159"/><polygon points="77.131 405.41 87.256 405.41 87.256 431.159 92.93 431.159 92.93 405.41 103.055 405.41 103.055 400.609 77.131 400.609 77.131 405.41"/><polygon points="130.244 426.402 113.005 426.402 113.005 417.979 127.756 417.979 127.756 413.31 113.005 413.31 113.005 405.366 129.633 405.366 129.633 400.609 107.331 400.609 107.331 431.159 130.244 431.159 130.244 426.402"/><path d="M142.245,422.256h6.9c.408,0,.79-.029,1.18-.049l6.239,8.952h6.11l-7.024-10.022c.149-.059.311-.1.456-.168a10,10,0,0,0,4.472-3.71,10.384,10.384,0,0,0,1.571-5.782,10.5,10.5,0,0,0-1.571-5.8,10.089,10.089,0,0,0-4.472-3.753,16.844,16.844,0,0,0-6.961-1.31h-12.57v30.55h5.673Zm12.286-15.275a5.5,5.5,0,0,1,1.9,4.5,5.583,5.583,0,0,1-1.9,4.5,8.53,8.53,0,0,1-5.652,1.614h-6.634V405.41h6.634A8.7,8.7,0,0,1,154.531,406.981Z"/><path d="M175.087,408.159a10.187,10.187,0,0,1,3.447-2.225,11.822,11.822,0,0,1,4.387-.786,10.738,10.738,0,0,1,8.161,3.579l3.666-3.448a13.58,13.58,0,0,0-5.237-3.819,18.877,18.877,0,0,0-13.355-.131,15.737,15.737,0,0,0-5.193,3.274,14.784,14.784,0,0,0-3.448,5,16.771,16.771,0,0,0,0,12.569,14.929,14.929,0,0,0,3.425,5,15.426,15.426,0,0,0,5.194,3.273,17.809,17.809,0,0,0,6.481,1.157,17.554,17.554,0,0,0,6.9-1.31,13.968,13.968,0,0,0,5.237-3.8L191.082,423a10.844,10.844,0,0,1-3.71,2.728,11.019,11.019,0,0,1-4.451.894,11.842,11.842,0,0,1-4.387-.785,10.082,10.082,0,0,1-5.717-5.63,11.972,11.972,0,0,1,0-8.642A10.113,10.113,0,0,1,175.087,408.159Z"/><path d="M195.228,431.159h5.847l3.026-7.07H219.38l3.037,7.07h5.936l-13.791-30.55h-5.587Zm22.241-11.521H206.005l5.722-13.37Z"/><path d="M256.24,417.259a10.384,10.384,0,0,0,1.572-5.782,10.5,10.5,0,0,0-1.572-5.8,10.1,10.1,0,0,0-4.473-3.753,16.841,16.841,0,0,0-6.961-1.31h-12.57v30.55h5.674v-8.9h6.9c.408,0,.79-.029,1.181-.049l6.238,8.952h6.11l-7.024-10.022c.149-.059.311-.1.456-.168A10.013,10.013,0,0,0,256.24,417.259ZM250.2,406.981a5.5,5.5,0,0,1,1.9,4.5,5.583,5.583,0,0,1-1.9,4.5,8.527,8.527,0,0,1-5.651,1.614H237.91V405.41h6.634A8.7,8.7,0,0,1,250.2,406.981Z"/><polygon points="286.441 405.366 286.441 400.609 264.14 400.609 264.14 431.159 287.052 431.159 287.052 426.402 269.813 426.402 269.813 417.979 284.564 417.979 284.564 413.31 269.813 413.31 269.813 405.366 286.441 405.366"/><path d="M318.779,426.358a11.888,11.888,0,0,1-3.883.525,16.457,16.457,0,0,1-5.543-.961,15.891,15.891,0,0,1-4.54-2.4l-1.963,4.409a14.929,14.929,0,0,0,5.194,2.64A22.773,22.773,0,0,0,314.9,431.6a16.864,16.864,0,0,0,6.939-1.244,9.163,9.163,0,0,0,4.08-3.317,8.192,8.192,0,0,0,1.331-4.516,7.377,7.377,0,0,0-.981-3.972,7.272,7.272,0,0,0-2.576-2.488,16.11,16.11,0,0,0-3.535-1.484q-1.942-.567-3.906-1.025t-3.557-.939a6.927,6.927,0,0,1-2.575-1.331,2.829,2.829,0,0,1-.981-2.248,3.422,3.422,0,0,1,.677-2.094,4.654,4.654,0,0,1,2.137-1.484,10.743,10.743,0,0,1,3.82-.567,16.058,16.058,0,0,1,4.189.589,16.812,16.812,0,0,1,4.233,1.811l1.789-4.408a15.778,15.778,0,0,0-4.712-2.008,21.779,21.779,0,0,0-5.456-.7,16.719,16.719,0,0,0-6.917,1.244,9.169,9.169,0,0,0-4.059,3.316,8.27,8.27,0,0,0-1.331,4.561,7.332,7.332,0,0,0,1,4.016,7.662,7.662,0,0,0,2.6,2.509,16.244,16.244,0,0,0,3.536,1.528q1.941.588,3.883,1.025t3.536.939a7.436,7.436,0,0,1,2.6,1.352,2.8,2.8,0,0,1,1,2.248,3.209,3.209,0,0,1-.7,2.029A4.629,4.629,0,0,1,318.779,426.358Z"/><polygon points="355.178 405.366 355.178 400.609 332.876 400.609 332.876 431.159 355.789 431.159 355.789 426.402 338.55 426.402 338.55 417.979 353.301 417.979 353.301 413.31 338.55 413.31 338.55 405.366 355.178 405.366"/><path d="M381.646,420.969a10.013,10.013,0,0,0,4.475-3.71,10.392,10.392,0,0,0,1.57-5.782,10.505,10.505,0,0,0-1.57-5.8,10.1,10.1,0,0,0-4.475-3.753,16.829,16.829,0,0,0-6.96-1.31H362.117v30.55h5.673v-8.9h6.9c.408,0,.79-.029,1.181-.049l6.238,8.952h6.11l-7.023-10.022C381.341,421.078,381.5,421.033,381.646,420.969Zm-1.57-13.988a5.5,5.5,0,0,1,1.9,4.5,5.583,5.583,0,0,1-1.9,4.5,8.53,8.53,0,0,1-5.652,1.614H367.79V405.41h6.634A8.7,8.7,0,0,1,380.076,406.981Z"/><polygon points="406.009 424.159 395.853 400.609 389.699 400.609 403.054 431.159 408.64 431.159 421.951 400.609 416.277 400.609 406.009 424.159"/><rect x="425.18" y="400.609" width="5.674" height="30.55"/><path d="M445.714,408.159a10.177,10.177,0,0,1,3.447-2.225,11.816,11.816,0,0,1,4.386-.786,10.739,10.739,0,0,1,8.162,3.579l3.666-3.448a13.587,13.587,0,0,0-5.237-3.819,18.879,18.879,0,0,0-13.356-.131,15.758,15.758,0,0,0-5.193,3.274,14.767,14.767,0,0,0-3.447,5,16.758,16.758,0,0,0,0,12.569,14.914,14.914,0,0,0,3.425,5,15.426,15.426,0,0,0,5.194,3.273,17.805,17.805,0,0,0,6.481,1.157,17.554,17.554,0,0,0,6.9-1.31,13.976,13.976,0,0,0,5.237-3.8L461.709,423a10.844,10.844,0,0,1-3.71,2.728,11.024,11.024,0,0,1-4.452.894,11.837,11.837,0,0,1-4.386-.785,10.082,10.082,0,0,1-5.717-5.63,11.972,11.972,0,0,1,0-8.642A10.113,10.113,0,0,1,445.714,408.159Z"/><polygon points="476.503 417.979 491.254 417.979 491.254 413.31 476.503 413.31 476.503 405.366 493.131 405.366 493.131 400.609 470.829 400.609 470.829 431.159 493.741 431.159 493.741 426.402 476.503 426.402 476.503 417.979"/><path d="M368.383,237.656a15.45,15.45,0,0,0-21.057-5.734l-50.434,28.822A15.461,15.461,0,0,0,282.3,250.338H243.2l-5.491-6.131a29.387,29.387,0,0,0-21.862-9.769H191.762v-4.955a3.5,3.5,0,0,0-3.5-3.5H145.079a3.5,3.5,0,0,0-3.5,3.5V314.92a3.5,3.5,0,0,0,3.5,3.5h43.183a3.5,3.5,0,0,0,3.5-3.5v-12.1l57.871,24.223a3.5,3.5,0,0,0,3.195-.254l109.878-68.112A15.451,15.451,0,0,0,368.383,237.656ZM184.762,311.42H148.579V232.983h36.183V311.42Zm174.412-58.782-.107.064L250.673,319.9l-58.911-24.659v-53.8h24.089a22.375,22.375,0,0,1,16.647,7.438l6.534,7.3a3.5,3.5,0,0,0,2.608,1.165H282.3a8.433,8.433,0,0,1,0,16.865H241.64a3.5,3.5,0,0,0,0,7H282.3a15.457,15.457,0,0,0,15.2-12.743L350.8,238a8.432,8.432,0,0,1,8.373,14.639Z"/><path d="M187.482,151.733l66.043,66.043a3.5,3.5,0,0,0,4.95,0l66.043-66.043A50.2,50.2,0,0,0,256,78.425a50.2,50.2,0,0,0-68.518,73.308Zm35.5-78.7A42.912,42.912,0,0,1,253.525,85.69a3.5,3.5,0,0,0,4.95,0,43.2,43.2,0,0,1,61.093,61.093L256,210.352l-63.568-63.569a43.2,43.2,0,0,1,30.547-73.746Z"/></svg>