<svg id="Layer_4" data-name="Layer 4" xmlns="http://www.w3.org/2000/svg" viewBox="0 0 512 512"><path d="M204.175,408.159a10.177,10.177,0,0,1,3.447-2.225,11.822,11.822,0,0,1,4.387-.786,10.738,10.738,0,0,1,8.161,3.579l3.666-3.448a13.58,13.58,0,0,0-5.237-3.819,18.877,18.877,0,0,0-13.355-.131,15.737,15.737,0,0,0-5.193,3.274,14.77,14.77,0,0,0-3.448,5,16.771,16.771,0,0,0,0,12.569,14.929,14.929,0,0,0,3.425,5,15.426,15.426,0,0,0,5.194,3.273A17.809,17.809,0,0,0,211.7,431.6a17.554,17.554,0,0,0,6.9-1.31,13.968,13.968,0,0,0,5.237-3.8L220.17,423a10.853,10.853,0,0,1-3.71,2.728,11.023,11.023,0,0,1-4.451.894,11.842,11.842,0,0,1-4.387-.785,10.082,10.082,0,0,1-5.717-5.63,11.972,11.972,0,0,1,0-8.642A10.113,10.113,0,0,1,204.175,408.159Z"/><polygon points="234.964 400.609 229.291 400.609 229.291 431.159 250.938 431.159 250.938 426.358 234.964 426.358 234.964 400.609"/><path d="M275.9,417.63q0,4.713-2.006,6.852a8.743,8.743,0,0,1-11.457,0q-2.029-2.137-2.03-6.852V400.609h-5.673v17.24q0,6.677,3.557,10.212t9.842,3.535q6.24,0,9.8-3.535t3.556-10.212v-17.24H275.9Z"/><path d="M312.125,415.688a9.66,9.66,0,0,0-1.09-.419,7.564,7.564,0,0,0,2.835-2.548,7.41,7.41,0,0,0,1.135-4.168,6.865,6.865,0,0,0-2.88-5.783q-2.881-2.161-8.38-2.161H289.431v30.55h15.187q5.934,0,8.947-2.181a7.118,7.118,0,0,0,3.011-6.111,7.818,7.818,0,0,0-1.2-4.451A7.663,7.663,0,0,0,312.125,415.688Zm-8.991-10.627a8.3,8.3,0,0,1,4.561,1.047,3.553,3.553,0,0,1,1.593,3.186,3.513,3.513,0,0,1-1.593,3.143,8.3,8.3,0,0,1-4.561,1.047H295.1v-8.423Zm6.023,20.6a9.392,9.392,0,0,1-4.888,1.048H295.1v-8.816h9.165a9.24,9.24,0,0,1,4.888,1.069,4.147,4.147,0,0,1,0,6.7Z"/><path d="M298.98,66.876a85.715,85.715,0,0,0-78.493,120.145L128.338,279.17a3.5,3.5,0,0,0-1,2.879l4.076,35.03a3.5,3.5,0,0,0,3.072,3.072l35.03,4.076a3.647,3.647,0,0,0,.4.023,3.5,3.5,0,0,0,2.475-1.025l30.476-30.476a3.5,3.5,0,0,0,1.025-2.475V276.1H218.07a3.5,3.5,0,0,0,2.475-1.026l10.038-10.039a3.5,3.5,0,0,0,1.025-2.474V248.384h14.177a3.5,3.5,0,0,0,2.475-1.026l16.282-16.281a85.711,85.711,0,1,0,34.438-164.2Zm55.655,141.361a78.887,78.887,0,0,1-89.353,15.485,3.5,3.5,0,0,0-3.973.688l-16.974,16.974H228.108a3.5,3.5,0,0,0-3.5,3.5v16.225l-7.988,7.99H200.394a3.5,3.5,0,0,0-3.5,3.5v16.225l-28.253,28.254-30.6-3.559-3.56-30.6,92.669-92.668a3.5,3.5,0,0,0,.688-3.973,78.711,78.711,0,1,1,126.793,21.956Z"/><path d="M238.092,202.085,187.127,253.05A3.5,3.5,0,0,0,192.078,258l50.964-50.965a3.5,3.5,0,0,0-4.95-4.949Z"/><path d="M338.231,107.461a13.314,13.314,0,1,0,9.414,3.9A13.227,13.227,0,0,0,338.231,107.461Zm4.464,17.778a6.314,6.314,0,1,1,0-8.928A6.322,6.322,0,0,1,342.7,125.239Z"/></svg>