<svg id="Layer_4" data-name="Layer 4" xmlns="http://www.w3.org/2000/svg" viewBox="0 0 512 512"><polygon points="157.552 423.971 149.839 400.609 144.602 400.609 136.708 423.85 129.108 400.609 123.217 400.609 133.342 431.159 139.408 431.159 147.083 408.57 154.64 431.159 160.662 431.159 170.788 400.609 165.376 400.609 157.552 423.971"/><path d="M179.007,424.089h15.28l3.036,7.07h5.936l-13.791-30.55h-5.587l-13.747,30.55h5.847Zm7.626-17.821,5.742,13.37H180.912Z"/><path d="M231.146,417.259a10.384,10.384,0,0,0,1.572-5.782,10.5,10.5,0,0,0-1.572-5.8,10.091,10.091,0,0,0-4.473-3.753,16.841,16.841,0,0,0-6.961-1.31H207.143v30.55h5.673v-8.9h6.9c.408,0,.79-.029,1.181-.049l6.238,8.952h6.11l-7.023-10.022c.148-.059.31-.1.455-.168A10.007,10.007,0,0,0,231.146,417.259ZM225.1,406.981a5.506,5.506,0,0,1,1.9,4.5,5.585,5.585,0,0,1-1.9,4.5,8.532,8.532,0,0,1-5.652,1.614h-6.634V405.41h6.634A8.7,8.7,0,0,1,225.1,406.981Z"/><path d="M263.049,417.259a10.384,10.384,0,0,0,1.571-5.782,10.5,10.5,0,0,0-1.571-5.8,10.094,10.094,0,0,0-4.474-3.753,16.837,16.837,0,0,0-6.961-1.31H239.045v30.55h5.674v-8.9h6.9c.408,0,.79-.029,1.181-.049l6.238,8.952h6.111l-7.024-10.022c.149-.059.311-.1.455-.168A10.01,10.01,0,0,0,263.049,417.259ZM257,406.981a5.5,5.5,0,0,1,1.9,4.5,5.582,5.582,0,0,1-1.9,4.5,8.53,8.53,0,0,1-5.651,1.614h-6.634V405.41h6.634A8.7,8.7,0,0,1,257,406.981Z"/><path d="M266.627,431.159h5.848l3.025-7.07h15.28l3.036,7.07h5.936l-13.791-30.55h-5.587Zm22.241-11.521H277.4l5.721-13.37Z"/><polygon points="308.306 400.609 303.636 400.609 303.636 431.159 309.266 431.159 309.266 410.475 326.112 431.159 330.782 431.159 330.782 400.609 325.152 400.609 325.152 421.294 308.306 400.609"/><polygon points="378.004 431.159 378.004 420.395 389.962 400.609 384.376 400.609 375.349 415.471 366.395 400.609 360.983 400.609 360.328 400.609 335.06 400.609 335.06 405.41 345.185 405.41 345.185 431.159 350.857 431.159 350.857 405.41 360.983 405.41 360.983 401.694 372.33 420.468 372.33 431.159 378.004 431.159"/><path d="M369.877,249.373a15.433,15.433,0,0,0-22.552-17.451l-50.433,28.822A15.461,15.461,0,0,0,282.3,250.338H243.2l-5.492-6.131a29.38,29.38,0,0,0-21.861-9.769h-24.09v-4.955a3.5,3.5,0,0,0-3.5-3.5H145.079a3.5,3.5,0,0,0-3.5,3.5V314.92a3.5,3.5,0,0,0,3.5,3.5h43.182a3.5,3.5,0,0,0,3.5-3.5v-12.1l57.872,24.223a3.5,3.5,0,0,0,3.2-.254l109.877-68.112A15.328,15.328,0,0,0,369.877,249.373ZM184.761,311.42H148.579V232.983h36.182V311.42Zm174.413-58.782-.107.064L250.673,319.9l-58.912-24.659v-53.8h24.09a22.375,22.375,0,0,1,16.647,7.438l6.534,7.3a3.5,3.5,0,0,0,2.608,1.165H282.3a8.433,8.433,0,1,1,0,16.865H241.64a3.5,3.5,0,0,0,0,7H282.3a15.457,15.457,0,0,0,15.2-12.743L350.8,238a8.432,8.432,0,0,1,8.374,14.639Z"/><path d="M196.686,167.069a21.994,21.994,0,0,1,6.485,15.656,29.175,29.175,0,0,0,29.142,29.142,21.993,21.993,0,0,1,15.657,6.486,29.177,29.177,0,0,0,41.213,0,21.991,21.991,0,0,1,15.656-6.486,29.175,29.175,0,0,0,29.142-29.142,21.994,21.994,0,0,1,6.485-15.656,29.177,29.177,0,0,0,0-41.214,21.994,21.994,0,0,1-6.485-15.656,29.174,29.174,0,0,0-29.142-29.141,22,22,0,0,1-15.656-6.486,29.176,29.176,0,0,0-41.213,0,22,22,0,0,1-15.657,6.486A29.174,29.174,0,0,0,203.171,110.2a22,22,0,0,1-6.485,15.657A29.176,29.176,0,0,0,196.686,167.069Zm13.485-56.87a22.166,22.166,0,0,1,22.142-22.141,28.955,28.955,0,0,0,20.607-8.536,22.166,22.166,0,0,1,31.313,0,28.953,28.953,0,0,0,20.606,8.536A22.166,22.166,0,0,1,326.981,110.2a28.954,28.954,0,0,0,8.535,20.607,22.167,22.167,0,0,1,0,31.313,28.95,28.95,0,0,0-8.535,20.606,22.167,22.167,0,0,1-22.142,22.142,28.954,28.954,0,0,0-20.607,8.535,22.164,22.164,0,0,1-31.312,0,28.953,28.953,0,0,0-20.607-8.535,22.167,22.167,0,0,1-22.142-22.142,28.95,28.95,0,0,0-8.535-20.606,22.167,22.167,0,0,1,0-31.313A28.954,28.954,0,0,0,210.171,110.2Z"/><path d="M268.576,194.553a48.079,48.079,0,0,0,36.882-78.936l5.045-6.2A3.5,3.5,0,1,0,305.075,105L265.7,153.379l-14.384-14.292a3.5,3.5,0,0,0-4.934,4.966L263.5,161.069a3.5,3.5,0,0,0,2.467,1.017c.061,0,.123,0,.185-.005a3.5,3.5,0,0,0,2.53-1.286l32.265-39.64a41.02,41.02,0,1,1-12.868-10.868,3.5,3.5,0,1,0,3.328-6.158,48.094,48.094,0,1,0-22.835,90.424Z"/></svg>