<svg id="Layer_4" data-name="Layer 4" xmlns="http://www.w3.org/2000/svg" viewBox="0 0 512 512"><polygon points="142.878 427.668 152.92 410.919 152.96 431.159 158.328 431.159 158.284 400.609 153.614 400.609 141.69 420.853 129.567 400.609 124.897 400.609 124.897 431.159 130.309 431.159 130.309 411.181 140.347 427.668 142.878 427.668"/><path d="M192.631,404.646a16.013,16.013,0,0,0-5.216-3.3,18.823,18.823,0,0,0-13.114,0,15.946,15.946,0,0,0-5.238,3.3,14.873,14.873,0,0,0-3.448,4.975,16.673,16.673,0,0,0,0,12.526,14.853,14.853,0,0,0,3.448,4.975,15.913,15.913,0,0,0,5.238,3.295,17.925,17.925,0,0,0,6.59,1.179,17.629,17.629,0,0,0,6.524-1.179,16.177,16.177,0,0,0,5.216-3.273,14.552,14.552,0,0,0,3.447-4.975,16.7,16.7,0,0,0,0-12.548A14.855,14.855,0,0,0,192.631,404.646Zm-1.855,15.537a10.6,10.6,0,0,1-2.248,3.4,9.851,9.851,0,0,1-3.4,2.248,12.044,12.044,0,0,1-8.554,0,9.86,9.86,0,0,1-3.4-2.248,10.53,10.53,0,0,1-2.248-3.426,11.8,11.8,0,0,1,0-8.576,10.424,10.424,0,0,1,2.27-3.4,10.127,10.127,0,0,1,3.4-2.247,11.236,11.236,0,0,1,4.255-.786,11.409,11.409,0,0,1,4.277.786,9.848,9.848,0,0,1,3.4,2.247,10.622,10.622,0,0,1,2.248,3.4,11.854,11.854,0,0,1,0,8.6Z"/><polygon points="230.295 400.609 224.621 400.609 214.353 424.159 204.196 400.609 198.043 400.609 211.397 431.159 216.983 431.159 230.295 400.609"/><polygon points="255.826 405.366 255.826 400.609 233.524 400.609 233.524 431.159 256.437 431.159 256.437 426.402 239.197 426.402 239.197 417.979 253.949 417.979 253.949 413.309 239.197 413.309 239.197 405.366 255.826 405.366"/><polygon points="278.215 427.668 280.746 427.668 290.787 410.919 290.827 431.159 296.195 431.159 296.151 400.609 291.482 400.609 279.557 420.854 267.435 400.609 262.765 400.609 262.765 431.159 268.177 431.159 268.177 411.183 278.215 427.668"/><polygon points="326.745 405.366 326.745 400.609 304.443 400.609 304.443 431.159 327.356 431.159 327.356 426.402 310.117 426.402 310.117 417.979 324.868 417.979 324.868 413.309 310.117 413.309 310.117 405.366 326.745 405.366"/><polygon points="339.314 410.476 356.16 431.159 360.83 431.159 360.83 400.609 355.2 400.609 355.2 421.292 338.354 400.609 333.685 400.609 333.685 431.159 339.314 431.159 339.314 410.476"/><polygon points="380.905 431.159 380.905 405.41 391.031 405.41 391.031 400.609 365.107 400.609 365.107 405.41 375.232 405.41 375.232 431.159 380.905 431.159"/><path d="M186.483,265.96a40.465,40.465,0,1,0-11.855-28.615,40.193,40.193,0,0,0,11.855,28.615Zm4.946-52.278a33.463,33.463,0,1,1,0,47.328v0a33.465,33.465,0,0,1,0-47.325Z"/><path d="M127.6,256.491l15.6,3.059a74.931,74.931,0,0,0,5.353,12.933l-8.866,13.191a3.5,3.5,0,0,0,.43,4.428l11.107,11.107,0,0,11.11,11.11a3.5,3.5,0,0,0,4.427.429l13.19-8.866a74.927,74.927,0,0,0,12.934,5.353l3.059,15.6a3.5,3.5,0,0,0,3.435,2.827H230.8a3.5,3.5,0,0,0,3.434-2.827l3.059-15.6a74.849,74.849,0,0,0,12.934-5.353l13.191,8.866a3.5,3.5,0,0,0,4.427-.429l22.219-22.22a3.5,3.5,0,0,0,.43-4.428l-8.866-13.19a74.941,74.941,0,0,0,5.353-12.934l15.6-3.059a3.5,3.5,0,0,0,2.827-3.434V221.633a3.5,3.5,0,0,0-2.826-3.434l-15.6-3.059a74.941,74.941,0,0,0-5.353-12.934l8.866-13.19a3.5,3.5,0,0,0-.43-4.428L278.96,173.481l0,0-11.11-11.11a3.5,3.5,0,0,0-4.427-.43l-13.191,8.867a74.9,74.9,0,0,0-12.934-5.354l-3.059-15.6a3.5,3.5,0,0,0-3.434-2.827H199.38a3.5,3.5,0,0,0-3.435,2.827l-3.059,15.6a74.927,74.927,0,0,0-12.934,5.353l-13.191-8.867a3.5,3.5,0,0,0-4.427.431l-22.219,22.219a3.5,3.5,0,0,0-.43,4.428l8.866,13.19A74.927,74.927,0,0,0,143.2,215.14L127.6,218.2a3.5,3.5,0,0,0-2.826,3.434v31.424A3.5,3.5,0,0,0,127.6,256.491Zm4.173-31.977,14.864-2.914a3.5,3.5,0,0,0,2.7-2.5,67.9,67.9,0,0,1,6.355-15.354,3.5,3.5,0,0,0-.14-3.678L147.1,187.5l18.145-18.146,12.566,8.446a3.5,3.5,0,0,0,3.677.141,67.878,67.878,0,0,1,15.354-6.355,3.5,3.5,0,0,0,2.5-2.7l2.914-14.864h25.662l2.914,14.864a3.5,3.5,0,0,0,2.5,2.7,67.9,67.9,0,0,1,15.354,6.355,3.5,3.5,0,0,0,3.677-.141l12.566-8.446,9.074,9.073,0,0,9.07,9.071-8.446,12.565a3.5,3.5,0,0,0-.141,3.678A67.953,67.953,0,0,1,280.85,219.1a3.5,3.5,0,0,0,2.7,2.5l14.863,2.914v25.662L283.55,253.09a3.5,3.5,0,0,0-2.7,2.5,67.953,67.953,0,0,1-6.356,15.354,3.5,3.5,0,0,0,.141,3.678l8.446,12.565-18.146,18.146-12.566-8.446a3.5,3.5,0,0,0-3.677-.141,67.916,67.916,0,0,1-15.354,6.355,3.5,3.5,0,0,0-2.5,2.7l-2.914,14.863H202.26L199.346,305.8a3.5,3.5,0,0,0-2.5-2.7,67.878,67.878,0,0,1-15.354-6.355,3.5,3.5,0,0,0-3.677.14l-12.566,8.447-9.073-9.073,0,0-9.069-9.071,8.446-12.566a3.5,3.5,0,0,0,.14-3.677,67.9,67.9,0,0,1-6.355-15.354,3.5,3.5,0,0,0-2.7-2.5l-14.863-2.914Z"/><path d="M305.375,144.69a28.33,28.33,0,1,0-8.3-20.037,28.141,28.141,0,0,0,8.3,20.037Zm4.945-35.121a21.333,21.333,0,1,1,0,30.17l0,0a21.332,21.332,0,0,1,0-30.168Z"/><path d="M266.4,138.643l9.812,1.923a51.391,51.391,0,0,0,3.153,7.618l-5.576,8.3a3.5,3.5,0,0,0,.43,4.428l7.464,7.463,0,0,7.46,7.461a3.5,3.5,0,0,0,4.427.43l8.3-5.576a51.5,51.5,0,0,0,7.618,3.153l1.924,9.812a3.5,3.5,0,0,0,3.435,2.826h21.109a3.5,3.5,0,0,0,3.435-2.826l1.923-9.812a51.465,51.465,0,0,0,7.619-3.153l8.3,5.576a3.5,3.5,0,0,0,4.427-.43l14.927-14.926a3.5,3.5,0,0,0,.43-4.428l-5.577-8.3a51.4,51.4,0,0,0,3.154-7.618l9.811-1.923a3.5,3.5,0,0,0,2.827-3.435V114.1a3.5,3.5,0,0,0-2.826-3.435l-9.812-1.924a51.428,51.428,0,0,0-3.154-7.617l5.577-8.3a3.5,3.5,0,0,0-.43-4.428l-7.464-7.463,0,0-7.46-7.46a3.5,3.5,0,0,0-4.427-.431l-8.3,5.577a51.47,51.47,0,0,0-7.619-3.154l-1.923-9.811a3.5,3.5,0,0,0-3.435-2.826H314.85a3.5,3.5,0,0,0-3.435,2.826l-1.924,9.811a51.458,51.458,0,0,0-7.618,3.154l-8.3-5.577a3.5,3.5,0,0,0-4.427.431L274.224,88.4a3.5,3.5,0,0,0-.43,4.427l5.576,8.3a51.358,51.358,0,0,0-3.154,7.617l-9.812,1.924a3.5,3.5,0,0,0-2.826,3.435v21.109A3.5,3.5,0,0,0,266.4,138.643Zm4.173-21.664,9.058-1.776a3.5,3.5,0,0,0,2.7-2.5,44.476,44.476,0,0,1,4.162-10.054,3.5,3.5,0,0,0-.141-3.678l-5.146-7.657,10.853-10.853,7.658,5.147a3.5,3.5,0,0,0,3.676.141,44.441,44.441,0,0,1,10.055-4.162,3.5,3.5,0,0,0,2.5-2.7l1.776-9.057h15.348l1.776,9.057a3.5,3.5,0,0,0,2.5,2.7,44.422,44.422,0,0,1,10.055,4.162,3.5,3.5,0,0,0,3.677-.141l7.657-5.147,5.425,5.424,0,0,5.427,5.426-5.147,7.657a3.5,3.5,0,0,0-.141,3.677,44.4,44.4,0,0,1,4.161,10.055,3.5,3.5,0,0,0,2.7,2.5l9.058,1.776v15.349l-9.057,1.776a3.5,3.5,0,0,0-2.7,2.5,44.415,44.415,0,0,1-4.161,10.054,3.5,3.5,0,0,0,.141,3.677L369.6,158l-10.854,10.853-7.657-5.147a3.5,3.5,0,0,0-3.677-.141,44.468,44.468,0,0,1-10.055,4.162,3.5,3.5,0,0,0-2.5,2.7l-1.776,9.057H317.73l-1.776-9.057a3.5,3.5,0,0,0-2.5-2.7A44.487,44.487,0,0,1,303.4,163.56a3.5,3.5,0,0,0-3.676.141l-7.658,5.147-5.424-5.424,0,0L281.21,158l5.146-7.658a3.5,3.5,0,0,0,.142-3.677,44.463,44.463,0,0,1-4.163-10.055,3.5,3.5,0,0,0-2.7-2.5l-9.057-1.776Z"/></svg>