<svg id="Layer_4" data-name="Layer 4" xmlns="http://www.w3.org/2000/svg" viewBox="0 0 512 512"><path d="M94.828,420.969a10,10,0,0,0,4.473-3.71,10.384,10.384,0,0,0,1.571-5.782,10.5,10.5,0,0,0-1.571-5.8,10.086,10.086,0,0,0-4.473-3.753,16.841,16.841,0,0,0-6.961-1.31H75.3v30.55h5.673v-8.9h6.9c.408,0,.79-.029,1.181-.049l6.238,8.952h6.11l-7.023-10.022C94.522,421.078,94.684,421.033,94.828,420.969Zm-1.571-13.988a5.506,5.506,0,0,1,1.9,4.5,5.585,5.585,0,0,1-1.9,4.5,8.534,8.534,0,0,1-5.653,1.614H80.971V405.41H87.6A8.707,8.707,0,0,1,93.257,406.981Z"/><polygon points="130.112 426.402 112.873 426.402 112.873 417.979 127.625 417.979 127.625 413.31 112.873 413.31 112.873 405.366 129.502 405.366 129.502 400.609 107.2 400.609 107.2 431.159 130.112 431.159 130.112 426.402"/><polygon points="148.312 431.159 148.312 405.41 158.438 405.41 158.438 400.609 132.514 400.609 132.514 405.41 142.639 405.41 142.639 431.159 148.312 431.159"/><path d="M161.885,400.609v17.24q0,6.677,3.556,10.212t9.842,3.535q6.24,0,9.8-3.535t3.557-10.212v-17.24h-5.586V417.63q0,4.713-2.008,6.852a8.742,8.742,0,0,1-11.456,0q-2.031-2.137-2.029-6.852V400.609Z"/><path d="M220.584,417.259a10.384,10.384,0,0,0,1.571-5.782,10.5,10.5,0,0,0-1.571-5.8,10.086,10.086,0,0,0-4.473-3.753,16.841,16.841,0,0,0-6.961-1.31H196.581v30.55h5.673v-8.9h6.9c.409,0,.791-.029,1.181-.049l6.238,8.952h6.111l-7.024-10.022c.149-.059.311-.1.455-.168A10,10,0,0,0,220.584,417.259Zm-6.044-10.278a5.5,5.5,0,0,1,1.9,4.5,5.582,5.582,0,0,1-1.9,4.5,8.532,8.532,0,0,1-5.652,1.614h-6.634V405.41h6.634A8.7,8.7,0,0,1,214.54,406.981Z"/><polygon points="233.153 400.609 228.483 400.609 228.483 431.159 234.113 431.159 234.113 410.476 250.959 431.159 255.629 431.159 255.629 400.609 249.999 400.609 249.999 421.292 233.153 400.609"/><path d="M295.409,401.919a16.837,16.837,0,0,0-6.961-1.31H275.879v30.55h5.674v-8.815h6.895a16.837,16.837,0,0,0,6.961-1.31,10.094,10.094,0,0,0,4.474-3.753,11.509,11.509,0,0,0,0-11.609A10.094,10.094,0,0,0,295.409,401.919Zm-1.571,14.031a8.609,8.609,0,0,1-5.651,1.593h-6.634V405.41h6.634a8.7,8.7,0,0,1,5.651,1.571,6.247,6.247,0,0,1,0,8.969Z"/><path d="M328.4,401.352a18.826,18.826,0,0,0-13.115,0,15.918,15.918,0,0,0-5.236,3.294,14.829,14.829,0,0,0-3.448,4.975,16.661,16.661,0,0,0,0,12.526,14.8,14.8,0,0,0,3.448,4.975,15.923,15.923,0,0,0,5.236,3.3,17.947,17.947,0,0,0,6.591,1.178,17.649,17.649,0,0,0,6.524-1.178,16.185,16.185,0,0,0,5.215-3.273,14.555,14.555,0,0,0,3.448-4.976,16.717,16.717,0,0,0,0-12.548,14.844,14.844,0,0,0-3.448-4.975A15.969,15.969,0,0,0,328.4,401.352Zm3.361,18.832a10.579,10.579,0,0,1-2.248,3.4,9.846,9.846,0,0,1-3.4,2.248,12.044,12.044,0,0,1-8.554,0,9.86,9.86,0,0,1-3.4-2.248,10.517,10.517,0,0,1-2.247-3.426,11.793,11.793,0,0,1,0-8.575,10.387,10.387,0,0,1,2.27-3.4,10.115,10.115,0,0,1,3.4-2.248,11.232,11.232,0,0,1,4.255-.786,11.406,11.406,0,0,1,4.277.786,9.846,9.846,0,0,1,3.4,2.248,10.584,10.584,0,0,1,2.248,3.4,11.854,11.854,0,0,1,0,8.6Z"/><polygon points="344.311 400.609 344.311 431.159 365.958 431.159 365.958 426.358 349.984 426.358 349.984 400.609 344.311 400.609"/><rect x="370.453" y="400.609" width="5.674" height="30.55"/><path d="M390.986,408.159a10.186,10.186,0,0,1,3.449-2.225,11.811,11.811,0,0,1,4.385-.786,10.734,10.734,0,0,1,8.161,3.579l3.666-3.448a13.557,13.557,0,0,0-5.237-3.819,18.874,18.874,0,0,0-13.354-.131,15.752,15.752,0,0,0-5.194,3.274,14.813,14.813,0,0,0-3.448,5,16.771,16.771,0,0,0,0,12.569,14.934,14.934,0,0,0,3.427,5,15.422,15.422,0,0,0,5.193,3.273,17.805,17.805,0,0,0,6.481,1.157,17.542,17.542,0,0,0,6.9-1.31,13.945,13.945,0,0,0,5.237-3.8L406.981,423a10.821,10.821,0,0,1-3.709,2.728,11.024,11.024,0,0,1-4.452.894,11.831,11.831,0,0,1-4.385-.785,10.072,10.072,0,0,1-5.718-5.63,11.972,11.972,0,0,1,0-8.642A10.14,10.14,0,0,1,390.986,408.159Z"/><polygon points="440.805 400.609 435.218 400.609 426.191 415.471 417.237 400.609 411.171 400.609 423.173 420.468 423.173 431.159 428.846 431.159 428.846 420.396 440.805 400.609"/><path d="M256,327.319c72.036,0,130.642-58.605,130.642-130.641S328.036,66.037,256,66.037a130.511,130.511,0,0,0-94.082,40.01V74.094a3.5,3.5,0,0,0-7,0v40.539a3.5,3.5,0,0,0,3.5,3.5h40.538a3.5,3.5,0,0,0,0-7H166.733A123.193,123.193,0,1,1,137.8,160.291a3.5,3.5,0,0,0-6.692-2.058,130.688,130.688,0,0,0-5.75,38.445C125.358,268.714,183.964,327.319,256,327.319Z"/><path d="M254.761,258.484c.1.038.2.057.305.085s.177.057.27.075a3.324,3.324,0,0,0,1.328,0c.093-.018.18-.05.27-.075s.206-.047.3-.085l77.271-29.266a3.5,3.5,0,0,0,2.261-3.273V167.412a3.467,3.467,0,0,0-.043-.542c0-.027-.014-.053-.019-.08a3.435,3.435,0,0,0-.145-.542c-.009-.025-.011-.051-.02-.076s-.036-.067-.051-.1a3.556,3.556,0,0,0-.209-.419c-.032-.055-.061-.11-.095-.162a3.589,3.589,0,0,0-.373-.478c-.027-.029-.059-.052-.087-.08a3.606,3.606,0,0,0-.375-.323c-.058-.043-.118-.081-.178-.12a3.666,3.666,0,0,0-.351-.2c-.069-.034-.137-.067-.208-.1-.036-.015-.07-.036-.107-.05l-77.271-29.267a3.491,3.491,0,0,0-2.478,0L206.369,153.2a3.5,3.5,0,0,0-1.05.4L177.49,164.139c-.039.014-.073.036-.111.052-.068.028-.133.06-.2.093a3.509,3.509,0,0,0-.359.205c-.059.038-.118.075-.174.116a3.438,3.438,0,0,0-.376.325c-.028.028-.06.051-.088.08a3.492,3.492,0,0,0-.372.477c-.035.052-.064.109-.1.164a3.543,3.543,0,0,0-.209.418c-.015.036-.037.066-.051.1s-.011.051-.02.076a3.435,3.435,0,0,0-.145.542c0,.027-.015.053-.019.08a3.467,3.467,0,0,0-.043.542v58.533a3.5,3.5,0,0,0,2.261,3.273Zm-72.532-86L252.5,199.1v51.048l-70.271-26.615Zm24.9-12.081,67.389,25.524L256,192.936l-67.389-25.524Zm23.159-8.772,67.389,25.524L284.4,182.18l-67.39-25.524Zm57.528,36.744,17.1-6.477v8.172l-17.1,5.971ZM259.5,250.143V199.1l21.314-8.073v9.944a3.5,3.5,0,0,0,4.654,3.3l24.1-8.416a3.5,3.5,0,0,0,2.347-3.3V179.242l17.856-6.762v51.048ZM256,141.888l67.389,25.524-15.833,6-67.389-25.524Z"/></svg>