<svg id="Layer_4" data-name="Layer 4" xmlns="http://www.w3.org/2000/svg" viewBox="0 0 512 512"><path d="M206.488,408.159a10.172,10.172,0,0,1,3.448-2.225,11.813,11.813,0,0,1,4.386-.786,10.729,10.729,0,0,1,8.161,3.579l3.666-3.448a13.572,13.572,0,0,0-5.237-3.819,18.862,18.862,0,0,0-13.355-.131,15.737,15.737,0,0,0-5.193,3.274,14.765,14.765,0,0,0-3.448,5,16.771,16.771,0,0,0,0,12.569,14.917,14.917,0,0,0,3.426,5,15.437,15.437,0,0,0,5.193,3.273,17.83,17.83,0,0,0,6.481,1.157,17.55,17.55,0,0,0,6.9-1.31,13.961,13.961,0,0,0,5.237-3.8L222.483,423a10.847,10.847,0,0,1-3.71,2.728,11.023,11.023,0,0,1-4.451.894,11.833,11.833,0,0,1-4.386-.785,10.08,10.08,0,0,1-5.718-5.63,11.972,11.972,0,0,1,0-8.642A10.128,10.128,0,0,1,206.488,408.159Z"/><path d="M240.376,400.609l-13.748,30.55h5.849l3.025-7.07h15.279l3.037,7.07h5.935l-13.791-30.55Zm-2.969,19.028,5.721-13.369,5.741,13.369Z"/><path d="M276.992,426.358a11.893,11.893,0,0,1-3.884.524,16.46,16.46,0,0,1-5.543-.96,15.885,15.885,0,0,1-4.539-2.4l-1.964,4.409a14.964,14.964,0,0,0,5.194,2.64,22.8,22.8,0,0,0,6.852,1.026,16.877,16.877,0,0,0,6.939-1.244,9.166,9.166,0,0,0,4.081-3.317,8.2,8.2,0,0,0,1.331-4.517,7.373,7.373,0,0,0-.982-3.972,7.258,7.258,0,0,0-2.575-2.487,16.11,16.11,0,0,0-3.535-1.484q-1.943-.567-3.906-1.026t-3.557-.938a6.942,6.942,0,0,1-2.575-1.331,2.831,2.831,0,0,1-.982-2.248,3.427,3.427,0,0,1,.677-2.094,4.658,4.658,0,0,1,2.138-1.484,10.738,10.738,0,0,1,3.819-.568,16.108,16.108,0,0,1,4.19.589,16.831,16.831,0,0,1,4.233,1.812l1.789-4.409a15.757,15.757,0,0,0-4.713-2.007,21.772,21.772,0,0,0-5.455-.7,16.7,16.7,0,0,0-6.918,1.245,9.18,9.18,0,0,0-4.059,3.316,8.278,8.278,0,0,0-1.331,4.561,7.326,7.326,0,0,0,1,4.015,7.65,7.65,0,0,0,2.6,2.51,16.165,16.165,0,0,0,3.535,1.527q1.941.589,3.884,1.026t3.535.938a7.433,7.433,0,0,1,2.6,1.353,2.8,2.8,0,0,1,1,2.248,3.208,3.208,0,0,1-.7,2.029A4.633,4.633,0,0,1,276.992,426.358Z"/><polygon points="313.391 405.366 313.391 400.609 291.089 400.609 291.089 431.159 314.002 431.159 314.002 426.402 296.763 426.402 296.763 417.979 311.514 417.979 311.514 413.309 296.763 413.309 296.763 405.366 313.391 405.366"/><path d="M158.021,241.484l23.548,83.287a3.5,3.5,0,0,0,3.368,2.548h20.755a3.5,3.5,0,0,0,3.5-3.5V288.8a99.459,99.459,0,0,0,75.395,0v35.022a3.5,3.5,0,0,0,3.5,3.5h20.755a3.5,3.5,0,0,0,3.368-2.548l23.548-83.287a98.742,98.742,0,0,0,8.195-22.706h9.86a10.849,10.849,0,0,0,10.837-10.837V185.416a10.85,10.85,0,0,0-10.837-10.838h-9.86a98.759,98.759,0,0,0-8.195-22.706L312.21,68.585a3.5,3.5,0,0,0-3.368-2.548H288.087a3.5,3.5,0,0,0-3.5,3.5v35.022a99.459,99.459,0,0,0-75.395,0V69.537a3.5,3.5,0,0,0-3.5-3.5H184.937a3.5,3.5,0,0,0-3.368,2.548l-23.548,83.287a99.4,99.4,0,0,0,0,89.612Zm44.171,78.835H187.584l-16.859-59.631A100.165,100.165,0,0,0,202.192,285.6Zm104,0H291.587V285.6a100.154,100.154,0,0,0,31.467-24.913Zm47.618-138.741a3.842,3.842,0,0,1,3.837,3.838v22.525a3.841,3.841,0,0,1-3.837,3.837h-8.527a100.227,100.227,0,0,0,0-30.2ZM291.587,73.037H306.2l16.859,59.631a100.165,100.165,0,0,0-31.467-24.912ZM339.43,196.678a92.54,92.54,0,1,1-92.54-92.54A92.644,92.644,0,0,1,339.43,196.678ZM187.584,73.037h14.608v34.719a100.177,100.177,0,0,0-31.467,24.912Z"/><path d="M246.89,270.86a74.182,74.182,0,1,0-74.182-74.182A74.265,74.265,0,0,0,246.89,270.86Zm0-141.364a67.182,67.182,0,1,1-67.182,67.182A67.258,67.258,0,0,1,246.89,129.5Z"/></svg>