<svg id="Layer_4" data-name="Layer 4" xmlns="http://www.w3.org/2000/svg" viewBox="0 0 512 512"><path d="M198.675,426.358a11.893,11.893,0,0,1-3.884.524,16.46,16.46,0,0,1-5.543-.96,15.885,15.885,0,0,1-4.539-2.4l-1.964,4.409a14.955,14.955,0,0,0,5.194,2.64,22.8,22.8,0,0,0,6.852,1.026,16.877,16.877,0,0,0,6.939-1.244,9.166,9.166,0,0,0,4.081-3.317,8.2,8.2,0,0,0,1.331-4.517,7.382,7.382,0,0,0-.982-3.972,7.267,7.267,0,0,0-2.575-2.487,16.131,16.131,0,0,0-3.535-1.484q-1.943-.567-3.906-1.026t-3.557-.938a6.934,6.934,0,0,1-2.575-1.331,2.828,2.828,0,0,1-.982-2.248,3.427,3.427,0,0,1,.677-2.094,4.652,4.652,0,0,1,2.138-1.484,10.735,10.735,0,0,1,3.819-.568,16.108,16.108,0,0,1,4.19.589,16.815,16.815,0,0,1,4.233,1.812l1.789-4.409a15.757,15.757,0,0,0-4.713-2.007,21.778,21.778,0,0,0-5.455-.7,16.7,16.7,0,0,0-6.918,1.245,9.175,9.175,0,0,0-4.059,3.316,8.278,8.278,0,0,0-1.331,4.561,7.326,7.326,0,0,0,1,4.015,7.65,7.65,0,0,0,2.6,2.51,16.165,16.165,0,0,0,3.535,1.527q1.941.589,3.884,1.026t3.535.938a7.433,7.433,0,0,1,2.6,1.353,2.8,2.8,0,0,1,1,2.248,3.214,3.214,0,0,1-.7,2.029A4.633,4.633,0,0,1,198.675,426.358Z"/><polygon points="224.206 431.159 224.206 405.41 234.332 405.41 234.332 400.609 208.408 400.609 208.408 405.41 218.533 405.41 218.533 431.159 224.206 431.159"/><path d="M238.608,431.159h5.674v-8.9h6.9c.408,0,.79-.029,1.181-.049l6.238,8.952h6.11l-7.023-10.022c.148-.059.31-.1.455-.168a10.013,10.013,0,0,0,4.473-3.71,10.388,10.388,0,0,0,1.572-5.783,10.5,10.5,0,0,0-1.572-5.805,10.1,10.1,0,0,0-4.473-3.753,16.841,16.841,0,0,0-6.961-1.309h-12.57Zm17.959-24.178a5.5,5.5,0,0,1,1.9,4.5,5.58,5.58,0,0,1-1.9,4.5,8.527,8.527,0,0,1-5.651,1.615h-6.634V405.41h6.634A8.7,8.7,0,0,1,256.567,406.981Z"/><path d="M275.064,424.089h15.279l3.037,7.07h5.935l-13.791-30.55h-5.586l-13.748,30.55h5.848Zm7.626-17.821,5.741,13.369H276.969Z"/><path d="M322.729,401.918a16.833,16.833,0,0,0-6.96-1.309H303.2v30.55h5.674v-8.816h6.9a16.833,16.833,0,0,0,6.96-1.309,10.094,10.094,0,0,0,4.474-3.753,11.511,11.511,0,0,0,0-11.61A10.1,10.1,0,0,0,322.729,401.918Zm-1.571,14.032a8.611,8.611,0,0,1-5.651,1.592h-6.634V405.41h6.634a8.7,8.7,0,0,1,5.651,1.571,6.245,6.245,0,0,1,0,8.969Z"/><path d="M151.139,324.131h91.069a3.5,3.5,0,0,0,3.5-3.5V306.216a3.5,3.5,0,0,0-3.5-3.5H231.292V221.759h3.043a3.5,3.5,0,0,0,3.5-3.5v-26.28a3.5,3.5,0,0,0-3.5-3.5h-3.043V164.105h10.916a3.5,3.5,0,0,0,3.5-3.5V83.375a17.358,17.358,0,0,0-17.339-17.338H164.978a17.358,17.358,0,0,0-17.339,17.338V160.6a3.5,3.5,0,0,0,3.5,3.5h10.916v24.374h-3.044a3.5,3.5,0,0,0-3.5,3.5v26.28a3.5,3.5,0,0,0,3.5,3.5h3.044v80.957H151.139a3.5,3.5,0,0,0-3.5,3.5v14.415A3.5,3.5,0,0,0,151.139,324.131Zm87.569-14.415v7.415h-7.416v-7.415Zm-76.2-94.957v-19.28h68.324v19.28ZM154.639,157.1V83.375a10.35,10.35,0,0,1,10.339-10.338h63.391a10.35,10.35,0,0,1,10.339,10.338V157.1h-7.416V107.594a3.5,3.5,0,0,0-3.5-3.5H200.173V85.907a3.5,3.5,0,1,0-7,0v18.187H165.555a3.5,3.5,0,0,0-3.5,3.5V157.1Zm14.416-46.011h24.118v7.094a3.5,3.5,0,0,0,7,0v-7.094h24.119v77.385H169.055Zm55.237,110.665v95.372H169.055V221.759Zm-69.653,87.957h7.416v7.415h-7.416Z"/><path d="M269.792,324.131h91.069a3.5,3.5,0,0,0,3.5-3.5V306.216a3.5,3.5,0,0,0-3.5-3.5H349.945V124.279a73.671,73.671,0,0,0-23.191-53.717,16.594,16.594,0,0,0-22.855,0,73.671,73.671,0,0,0-23.191,53.717V302.716H269.792a3.5,3.5,0,0,0-3.5,3.5v14.415A3.5,3.5,0,0,0,269.792,324.131Zm17.916-199.852a66.648,66.648,0,0,1,20.969-48.6,9.656,9.656,0,0,1,13.3,0,66.647,66.647,0,0,1,20.968,48.6v178.3H287.708ZM273.292,309.716h84.069v7.415H273.292Z"/><path d="M322.057,111.571H308.6a3.5,3.5,0,0,0,0,7h13.46a3.5,3.5,0,0,0,0-7Z"/><path d="M322.057,134.792H308.6a3.5,3.5,0,0,0,0,7h13.46a3.5,3.5,0,0,0,0-7Z"/><path d="M322.057,204.454H308.6a3.5,3.5,0,0,0,0,7h13.46a3.5,3.5,0,0,0,0-7Z"/><path d="M322.057,181.233H308.6a3.5,3.5,0,0,0,0,7h13.46a3.5,3.5,0,0,0,0-7Z"/><path d="M322.057,158.013H308.6a3.5,3.5,0,0,0,0,7h13.46a3.5,3.5,0,0,0,0-7Z"/></svg>